<mxfile host="app.diagrams.net" modified="2023-07-19T02:10:18.424Z" agent="Mozilla/5.0 (Windows NT 10.0; Win64; x64) AppleWebKit/537.36 (KHTML, like Gecko) Chrome/114.0.0.0 Safari/537.36" version="21.5.2" etag="_wHhgP19LxPXGwKwlDXd" type="github">
  <diagram name="Trang-1" id="BRMYjPsoir4g02J101XT">
    <mxGraphModel>
      <root>
        <mxCell id="0" />
        <mxCell id="1" parent="0" />
      </root>
    </mxGraphModel>
  </diagram>
</mxfile>
